<svg id="svg" version="1.1" xmlns="http://www.w3.org/2000/svg" xmlns:xlink="http://www.w3.org/1999/xlink" width="400" height="190.96774193548387" viewBox="0, 0, 400,190.96774193548387"><g id="svgg"><path id="path0" d="M117.383 32.136 C 115.009 33.333,114.804 33.779,114.804 37.754 L 114.804 41.050 114.183 41.499 C 113.842 41.747,113.348 42.043,113.085 42.158 C 112.822 42.274,112.264 42.519,111.843 42.703 C 104.507 45.922,102.388 47.620,102.388 50.276 C 102.388 54.655,105.740 55.705,110.767 52.900 C 113.603 51.318,114.228 51.118,114.237 51.791 C 114.241 52.040,114.369 52.411,114.524 52.615 C 114.894 53.105,114.890 56.306,114.516 59.026 C 114.364 60.129,114.181 63.126,114.109 65.685 C 113.988 69.969,113.948 70.367,113.603 70.689 C 113.003 71.248,113.008 74.890,113.610 75.858 C 114.150 76.726,114.224 82.864,113.745 87.011 C 113.582 88.418,113.382 92.805,113.283 97.135 C 113.187 101.337,113.017 105.635,112.906 106.686 C 112.795 107.736,112.607 111.777,112.489 115.664 C 112.372 119.551,112.201 123.849,112.109 125.215 C 111.743 130.690,111.681 153.929,112.031 154.464 C 115.014 159.016,120.174 157.034,120.294 151.289 C 120.564 138.394,120.776 129.643,120.927 125.119 C 121.026 122.125,121.191 117.096,121.292 113.945 C 121.394 110.793,121.566 106.022,121.676 103.343 C 121.786 100.664,121.959 96.185,122.061 93.389 C 122.265 87.794,122.428 85.578,122.637 85.578 C 122.936 85.578,130.992 93.140,132.938 95.248 C 134.169 96.581,135.962 98.503,137.815 100.478 C 138.554 101.266,140.019 102.854,141.070 104.008 C 143.416 106.584,144.496 107.750,148.149 111.652 C 149.722 113.333,152.039 115.826,153.296 117.192 C 158.877 123.252,165.832 129.992,167.188 130.653 C 170.754 132.393,174.657 129.283,173.641 125.511 C 173.446 124.785,172.798 124.072,168.437 119.791 C 165.697 117.101,160.916 112.149,157.811 108.787 C 154.706 105.425,151.552 102.030,150.803 101.242 C 150.053 100.454,149.061 99.379,148.599 98.854 C 148.137 98.329,147.104 97.211,146.304 96.371 C 145.503 95.530,144.298 94.241,143.627 93.506 C 142.232 91.977,133.054 82.803,130.643 80.526 C 126.757 76.857,125.872 75.964,125.936 75.775 C 126.007 75.562,126.062 75.542,128.462 74.893 C 148.670 69.429,159.686 58.869,157.326 47.222 C 156.217 41.746,152.623 38.297,145.654 36.019 C 144.145 35.526,140.464 35.088,138.918 35.217 C 138.105 35.285,136.194 35.427,134.670 35.533 C 133.147 35.639,131.686 35.804,131.423 35.900 C 131.160 35.996,130.473 36.173,129.895 36.294 C 128.674 36.550,128.087 36.738,126.400 37.417 C 124.476 38.190,123.526 37.668,123.317 35.721 C 122.967 32.462,120.133 30.750,117.383 32.136 M140.913 44.138 C 146.875 44.948,150.702 49.085,148.818 52.684 C 148.615 53.073,148.217 53.879,147.934 54.477 C 147.034 56.376,145.003 58.094,140.556 60.721 C 134.042 64.568,123.675 67.912,123.079 66.358 C 122.818 65.680,123.609 47.468,123.909 47.240 C 124.217 47.006,126.441 46.247,129.322 45.392 C 131.204 44.834,133.809 44.375,136.390 44.148 C 139.026 43.915,139.268 43.915,140.913 44.138 M246.227 67.797 C 243.499 68.009,242.042 69.116,239.507 72.900 L 238.232 74.805 238.300 78.147 C 238.347 80.495,238.452 81.713,238.652 82.244 C 238.808 82.659,238.987 83.757,239.050 84.684 C 239.113 85.616,239.297 86.627,239.462 86.945 C 239.625 87.262,239.833 88.223,239.922 89.081 C 240.120 90.973,240.148 91.048,241.298 92.813 C 241.803 93.589,242.218 94.405,242.220 94.628 C 242.222 94.851,242.392 95.248,242.598 95.511 C 242.803 95.774,242.973 96.088,242.976 96.210 C 242.981 96.475,244.414 99.045,244.918 99.691 C 245.396 100.306,245.408 102.151,244.938 102.792 C 244.754 103.042,244.392 103.677,244.134 104.202 C 243.876 104.728,243.339 105.658,242.940 106.269 C 242.542 106.881,242.216 107.424,242.216 107.476 C 242.216 108.405,236.085 114.826,234.883 115.157 C 232.524 115.805,230.912 113.091,229.343 105.826 C 228.312 101.054,228.206 100.252,228.160 96.944 C 227.986 84.370,227.811 80.735,227.347 79.988 C 225.854 77.587,222.751 77.321,220.454 79.396 L 219.580 80.186 219.478 84.076 C 219.420 86.304,219.288 88.129,219.169 88.348 C 218.437 89.696,218.473 93.540,219.227 94.646 C 219.663 95.284,219.572 98.106,219.096 98.728 C 218.882 99.007,217.743 100.604,216.565 102.276 C 215.386 103.948,214.031 105.753,213.553 106.287 C 212.549 107.410,210.891 109.585,210.882 109.792 C 210.857 110.347,208.044 113.569,207.535 113.625 C 207.226 113.659,206.891 113.767,206.791 113.864 C 205.610 115.011,205.349 107.458,206.304 99.809 C 208.106 85.373,208.191 84.182,207.513 82.713 C 205.875 79.163,201.516 79.272,199.885 82.904 C 199.328 84.142,199.032 84.188,197.166 83.321 C 194.558 82.109,193.490 82.107,189.551 83.306 C 185.689 84.481,180.905 88.885,178.767 93.232 C 177.495 95.818,177.268 96.406,177.268 97.117 C 177.268 97.505,177.118 98.097,176.934 98.434 C 176.366 99.472,176.328 108.259,176.882 110.105 C 179.668 119.373,187.222 118.581,195.612 108.140 C 196.376 107.190,196.562 107.159,196.562 107.985 C 196.562 108.331,196.662 108.716,196.786 108.839 C 196.913 108.967,196.992 109.504,196.968 110.091 C 196.945 110.656,197.053 111.711,197.207 112.436 C 197.362 113.161,197.534 114.484,197.590 115.377 C 197.932 120.852,202.546 125.277,206.983 124.386 C 210.001 123.780,211.841 122.157,217.453 115.154 C 219.194 112.982,220.687 111.163,220.771 111.110 C 221.075 110.922,222.103 112.442,222.430 113.563 C 222.613 114.193,222.855 114.879,222.967 115.086 C 223.079 115.294,223.277 115.865,223.406 116.355 C 223.978 118.524,227.247 122.400,229.387 123.447 C 230.631 124.055,230.715 124.069,233.238 124.069 C 237.234 124.069,239.468 123.041,243.815 119.204 C 245.479 117.736,250.062 111.507,251.184 109.190 C 251.734 108.052,251.798 108.061,254.530 109.634 C 258.974 112.193,263.576 112.528,267.471 110.575 C 268.608 110.005,268.820 110.091,269.398 111.350 C 269.820 112.268,269.881 112.575,269.724 112.986 C 269.435 113.748,269.493 114.939,269.853 115.626 C 270.030 115.962,270.234 116.667,270.308 117.192 C 270.707 120.035,274.440 123.369,278.090 124.141 C 284.170 125.427,291.739 120.206,299.931 109.074 C 306.084 100.712,306.705 99.321,305.238 97.190 C 303.270 94.330,299.938 94.973,297.504 98.682 C 296.840 99.694,294.226 103.295,293.983 103.534 C 293.929 103.586,293.631 103.973,293.321 104.394 C 286.775 113.254,280.145 117.469,278.594 113.756 C 277.836 111.940,278.511 98.649,279.662 92.741 C 280.455 88.675,280.295 87.604,278.707 86.347 C 275.429 83.751,271.423 86.703,271.066 91.977 C 270.982 93.213,270.795 94.371,270.610 94.789 C 270.437 95.179,270.296 95.859,270.296 96.299 C 270.296 97.857,267.900 100.732,265.590 101.944 C 262.619 103.504,259.685 103.018,256.886 100.502 C 255.740 99.472,255.740 99.370,256.883 96.084 C 258.311 91.979,258.668 90.584,259.421 86.151 C 259.743 84.255,259.734 77.876,259.408 76.887 C 259.043 75.781,256.464 71.432,255.571 70.418 C 253.735 68.332,250.608 67.455,246.227 67.797 M275.931 70.735 C 273.978 71.325,272.849 72.422,272.595 73.978 C 272.499 74.570,272.329 75.224,272.218 75.432 C 271.924 75.981,271.969 77.626,272.295 78.256 C 272.449 78.553,272.628 79.137,272.694 79.553 C 273.245 83.082,279.295 82.573,280.393 78.906 C 281.928 73.785,279.650 69.614,275.931 70.735 M248.596 76.409 C 251.327 76.409,252.582 84.832,250.233 87.393 C 250.040 87.603,249.780 88.032,249.655 88.348 L 249.427 88.921 248.964 87.888 C 247.025 83.565,246.428 75.667,248.088 76.305 C 248.238 76.362,248.466 76.409,248.596 76.409 M193.735 91.622 C 195.993 93.186,195.570 95.437,192.465 98.376 C 192.077 98.744,191.409 99.555,190.982 100.179 C 190.555 100.803,190.132 101.405,190.041 101.516 C 189.951 101.628,189.410 102.329,188.839 103.074 C 187.740 104.506,187.074 105.062,186.455 105.062 C 186.248 105.062,186.025 105.148,185.960 105.253 C 185.556 105.906,185.100 105.424,185.102 104.346 C 185.109 99.296,186.532 95.762,189.620 93.128 C 191.964 91.127,192.656 90.874,193.735 91.622 " stroke="none" fill="#f8f8f8" fill-rule="evenodd"></path><path id="path1" d="M0.000 95.511 L 0.000 191.022 200.000 191.022 L 400.000 191.022 400.000 95.511 L 400.000 0.000 200.000 0.000 L 0.000 0.000 0.000 95.511 M121.449 32.275 C 122.530 33.058,123.155 34.210,123.317 35.721 C 123.526 37.668,124.476 38.190,126.400 37.417 C 128.087 36.738,128.674 36.550,129.895 36.294 C 130.473 36.173,131.160 35.996,131.423 35.900 C 131.686 35.804,133.147 35.639,134.670 35.533 C 136.194 35.427,138.105 35.285,138.918 35.217 C 140.464 35.088,144.145 35.526,145.654 36.019 C 155.840 39.349,159.916 46.862,156.563 56.124 C 153.811 63.724,142.957 70.974,128.462 74.893 C 125.164 75.785,124.901 75.104,130.643 80.526 C 133.054 82.803,142.232 91.977,143.627 93.506 C 144.298 94.241,145.503 95.530,146.304 96.371 C 147.104 97.211,148.137 98.329,148.599 98.854 C 149.061 99.379,150.053 100.454,150.803 101.242 C 151.552 102.030,154.706 105.425,157.811 108.787 C 160.916 112.149,165.697 117.101,168.437 119.791 C 172.798 124.072,173.446 124.785,173.641 125.511 C 174.657 129.283,170.754 132.393,167.188 130.653 C 165.832 129.992,158.877 123.252,153.296 117.192 C 152.039 115.826,149.722 113.333,148.149 111.652 C 144.496 107.750,143.416 106.584,141.070 104.008 C 140.019 102.854,138.554 101.266,137.815 100.478 C 135.962 98.503,134.169 96.581,132.938 95.248 C 130.992 93.140,122.936 85.578,122.637 85.578 C 122.428 85.578,122.265 87.794,122.061 93.389 C 121.959 96.185,121.786 100.664,121.676 103.343 C 121.566 106.022,121.394 110.793,121.292 113.945 C 121.191 117.096,121.026 122.125,120.927 125.119 C 120.776 129.643,120.564 138.394,120.294 151.289 C 120.174 157.034,115.014 159.016,112.031 154.464 C 111.681 153.929,111.743 130.690,112.109 125.215 C 112.201 123.849,112.372 119.551,112.489 115.664 C 112.607 111.777,112.795 107.736,112.906 106.686 C 113.017 105.635,113.187 101.337,113.283 97.135 C 113.382 92.805,113.582 88.418,113.745 87.011 C 114.224 82.864,114.150 76.726,113.610 75.858 C 113.008 74.890,113.003 71.248,113.603 70.689 C 113.948 70.367,113.988 69.969,114.109 65.685 C 114.181 63.126,114.364 60.129,114.516 59.026 C 114.890 56.306,114.894 53.105,114.524 52.615 C 114.369 52.411,114.241 52.040,114.237 51.791 C 114.228 51.118,113.603 51.318,110.767 52.900 C 105.740 55.705,102.388 54.655,102.388 50.276 C 102.388 47.620,104.507 45.922,111.843 42.703 C 112.264 42.519,112.822 42.274,113.085 42.158 C 113.348 42.043,113.842 41.747,114.183 41.499 L 114.804 41.050 114.804 37.754 C 114.804 34.597,114.823 34.433,115.252 33.851 C 116.759 31.808,119.753 31.047,121.449 32.275 M136.390 44.148 C 133.809 44.375,131.204 44.834,129.322 45.392 C 126.441 46.247,124.217 47.006,123.909 47.240 C 123.609 47.468,122.818 65.680,123.079 66.358 C 123.675 67.912,134.042 64.568,140.556 60.721 C 145.003 58.094,147.034 56.376,147.934 54.477 C 148.217 53.879,148.615 53.073,148.818 52.684 C 150.702 49.085,146.875 44.948,140.913 44.138 C 139.268 43.915,139.026 43.915,136.390 44.148 M251.958 68.225 C 254.814 69.100,258.099 72.919,259.408 76.887 C 259.734 77.876,259.743 84.255,259.421 86.151 C 258.668 90.584,258.311 91.979,256.883 96.084 C 255.740 99.370,255.740 99.472,256.886 100.502 C 259.685 103.018,262.619 103.504,265.590 101.944 C 267.900 100.732,270.296 97.857,270.296 96.299 C 270.296 95.859,270.437 95.179,270.610 94.789 C 270.795 94.371,270.982 93.213,271.066 91.977 C 271.423 86.703,275.429 83.751,278.707 86.347 C 280.295 87.604,280.455 88.675,279.662 92.741 C 278.511 98.649,277.836 111.940,278.594 113.756 C 280.145 117.469,286.775 113.254,293.321 104.394 C 293.631 103.973,293.929 103.586,293.983 103.534 C 294.226 103.295,296.840 99.694,297.504 98.682 C 299.938 94.973,303.270 94.330,305.238 97.190 C 306.705 99.321,306.084 100.712,299.931 109.074 C 291.739 120.206,284.170 125.427,278.090 124.141 C 274.440 123.369,270.707 120.035,270.308 117.192 C 270.234 116.667,270.030 115.962,269.853 115.626 C 269.493 114.939,269.435 113.748,269.724 112.986 C 269.881 112.575,269.820 112.268,269.398 111.350 C 268.820 110.091,268.608 110.005,267.471 110.575 C 263.576 112.528,258.974 112.193,254.530 109.634 C 251.798 108.061,251.734 108.052,251.184 109.190 C 250.062 111.507,245.479 117.736,243.815 119.204 C 239.468 123.041,237.234 124.069,233.238 124.069 C 230.715 124.069,230.631 124.055,229.387 123.447 C 227.247 122.400,223.978 118.524,223.406 116.355 C 223.277 115.865,223.079 115.294,222.967 115.086 C 222.855 114.879,222.613 114.193,222.430 113.563 C 222.103 112.442,221.075 110.922,220.771 111.110 C 220.687 111.163,219.194 112.982,217.453 115.154 C 211.841 122.157,210.001 123.780,206.983 124.386 C 202.546 125.277,197.932 120.852,197.590 115.377 C 197.534 114.484,197.362 113.161,197.207 112.436 C 197.053 111.711,196.945 110.656,196.968 110.091 C 196.992 109.504,196.913 108.967,196.786 108.839 C 196.662 108.716,196.562 108.331,196.562 107.985 C 196.562 107.159,196.376 107.190,195.612 108.140 C 187.222 118.581,179.668 119.373,176.882 110.105 C 176.328 108.259,176.366 99.472,176.934 98.434 C 177.118 98.097,177.268 97.505,177.268 97.117 C 177.268 95.257,180.182 90.323,182.825 87.709 C 187.566 83.018,192.962 81.367,197.166 83.321 C 199.032 84.188,199.328 84.142,199.885 82.904 C 201.516 79.272,205.875 79.163,207.513 82.713 C 208.191 84.182,208.106 85.373,206.304 99.809 C 205.349 107.458,205.610 115.011,206.791 113.864 C 206.891 113.767,207.226 113.659,207.535 113.625 C 208.044 113.569,210.857 110.347,210.882 109.792 C 210.891 109.585,212.549 107.410,213.553 106.287 C 214.031 105.753,215.386 103.948,216.565 102.276 C 217.743 100.604,218.882 99.007,219.096 98.728 C 219.572 98.106,219.663 95.284,219.227 94.646 C 218.473 93.540,218.437 89.696,219.169 88.348 C 219.288 88.129,219.420 86.304,219.478 84.076 L 219.580 80.186 220.454 79.396 C 222.751 77.321,225.854 77.587,227.347 79.988 C 227.811 80.735,227.986 84.370,228.160 96.944 C 228.206 100.252,228.312 101.054,229.343 105.826 C 230.912 113.091,232.524 115.805,234.883 115.157 C 236.085 114.826,242.216 108.405,242.216 107.476 C 242.216 107.424,242.542 106.881,242.940 106.269 C 243.339 105.658,243.876 104.728,244.134 104.202 C 244.392 103.677,244.754 103.042,244.938 102.792 C 245.408 102.151,245.396 100.306,244.918 99.691 C 244.414 99.045,242.981 96.475,242.976 96.210 C 242.973 96.088,242.803 95.774,242.598 95.511 C 242.392 95.248,242.222 94.851,242.220 94.628 C 242.218 94.405,241.803 93.589,241.298 92.813 C 240.148 91.048,240.120 90.973,239.922 89.081 C 239.833 88.223,239.625 87.262,239.462 86.945 C 239.297 86.627,239.113 85.616,239.050 84.684 C 238.987 83.757,238.808 82.659,238.652 82.244 C 238.452 81.713,238.347 80.495,238.300 78.147 L 238.232 74.805 239.507 72.900 C 242.864 67.889,246.457 66.540,251.958 68.225 M279.068 71.123 C 281.356 72.637,281.483 78.378,279.278 80.631 C 277.101 82.856,273.108 82.202,272.694 79.553 C 272.628 79.137,272.449 78.553,272.295 78.256 C 271.969 77.626,271.924 75.981,272.218 75.432 C 272.329 75.224,272.499 74.570,272.595 73.978 C 273.032 71.297,276.811 69.630,279.068 71.123 M247.601 76.461 C 246.543 77.735,247.316 84.215,248.964 87.888 L 249.427 88.921 249.655 88.348 C 249.780 88.032,250.040 87.603,250.233 87.393 C 252.582 84.832,251.327 76.409,248.596 76.409 C 248.466 76.409,248.238 76.362,248.088 76.305 C 247.939 76.247,247.719 76.318,247.601 76.461 M191.848 91.513 C 187.628 93.601,185.110 98.391,185.102 104.346 C 185.100 105.424,185.556 105.906,185.960 105.253 C 186.025 105.148,186.248 105.062,186.455 105.062 C 187.074 105.062,187.740 104.506,188.839 103.074 C 189.410 102.329,189.951 101.628,190.041 101.516 C 190.132 101.405,190.555 100.803,190.982 100.179 C 191.409 99.555,192.077 98.744,192.465 98.376 C 195.570 95.437,195.993 93.186,193.735 91.622 C 192.860 91.016,192.853 91.015,191.848 91.513 " stroke="none" fill="#040404" fill-rule="evenodd"></path></g></svg>